<svg width="203" height="78" viewBox="0 0 203 78" fill="none" xmlns="http://www.w3.org/2000/svg">
<path d="M10.393 16.6347C6.25991 18.3648 1.71623 23.2524 0.281188 29.3875C-1.53618 37.1609 6.02674 40.448 6.64706 39.3702C7.37716 38.1038 5.29187 37.6755 4.86263 33.6423C4.30787 28.4331 6.72962 22.6124 9.77747 20.0585C10.344 19.584 10.3171 20.2444 10.3171 21.466C10.3171 23.6505 10.1964 43.2606 10.1964 47.3533C10.1964 52.8912 9.96762 54.6399 9.55682 56.3679C9.14058 58.1191 8.47141 59.3023 8.97847 59.7581C9.54499 60.2679 11.9638 59.0552 13.3641 57.1009C15.0432 54.7569 15.631 51.9419 15.7366 48.8849C15.864 45.1998 15.8586 39.3523 15.864 36.0169C15.8691 32.9579 15.9155 24.0003 15.8104 18.6154C15.7846 17.2946 12.1215 15.9088 10.3928 16.6331L10.393 16.6347ZM157.16 42.5516C157.027 45.4306 156.39 47.6809 155.599 49.2682C154.067 52.3411 150.89 53.2953 149.541 48.8779C148.806 46.47 148.772 42.4485 149.3 39.0883C149.838 35.6652 151.34 33.08 153.828 33.3132C156.282 33.5436 157.43 36.7054 157.16 42.5516ZM115.795 60.4137C115.762 65.1974 115.009 69.3916 113.394 70.6098C111.105 72.3372 108.027 71.0415 108.664 67.5508C109.228 64.4619 111.895 61.3073 115.802 57.4529C115.802 57.4529 115.81 58.3319 115.795 60.4137ZM115.17 42.5237C115.03 45.1459 114.35 47.7802 113.608 49.2686C112.077 52.3415 108.877 53.3021 107.551 48.8783C106.644 45.8557 106.861 41.9437 107.31 39.4788C107.892 36.2808 109.303 33.3138 111.838 33.3138C114.302 33.3138 115.517 36.0172 115.17 42.5237ZM91.2068 42.4836C91.0566 45.2608 90.5148 47.5824 89.6453 49.2686C88.0723 52.3203 84.9603 53.2882 83.5878 48.8783C82.5983 45.6984 82.9352 41.3625 83.3468 39.0203C83.9576 35.5446 85.4871 33.0803 87.8748 33.3138C90.3275 33.5535 91.5199 36.7054 91.2068 42.4836ZM201.023 45.7275C200.423 45.7275 200.15 46.3455 199.924 47.3858C199.138 51.003 198.313 51.8197 197.249 51.8197C196.06 51.8197 194.992 50.0287 194.717 46.4433C194.501 43.624 194.536 38.4337 194.812 33.2707C194.868 32.2099 194.576 31.1603 191.73 30.1267C190.506 29.6821 188.726 29.0275 187.84 31.1664C185.337 37.2094 184.357 42.007 184.127 43.956C184.115 44.0568 183.991 44.0774 183.969 43.8418C183.822 42.2808 183.494 39.4442 183.453 33.4845C183.445 32.3217 183.199 31.332 181.916 30.5216C181.083 29.9958 178.554 29.0659 177.643 30.1722C176.855 31.077 175.941 33.512 174.992 36.3984C174.22 38.7444 173.683 40.3313 173.683 40.3313C173.683 40.3313 173.693 34.0015 173.702 31.6005C173.706 30.6947 173.085 30.3928 172.898 30.3381C172.054 30.0934 170.393 29.6845 169.688 29.6845C168.817 29.6845 168.604 30.1709 168.604 30.8796C168.604 30.9724 168.467 39.2134 168.467 44.976C168.467 45.2263 168.467 45.4994 168.47 45.7895C167.988 48.438 166.427 52.0333 164.73 52.0333C163.031 52.0333 162.229 50.5302 162.229 43.6604C162.229 39.6527 162.349 37.91 162.408 35.0115C162.443 33.3419 162.509 32.0598 162.505 31.7689C162.493 30.8766 160.95 30.427 160.232 30.2608C159.511 30.0932 158.884 30.0283 158.394 30.0561C157.702 30.0952 157.212 30.5497 157.212 31.1747C157.212 31.5099 157.215 32.1472 157.215 32.1472C156.323 30.7451 154.888 29.7693 153.933 29.4865C151.362 28.7227 148.678 29.3995 146.654 32.2318C145.046 34.4822 144.076 37.0311 143.694 40.6931C143.415 43.3703 143.506 46.0852 144.002 48.3811C143.403 50.9719 142.29 52.0333 141.072 52.0333C139.304 52.0333 138.022 49.1467 138.171 44.1546C138.269 40.871 138.926 38.5667 139.644 35.233C139.95 33.8119 139.701 33.0679 139.077 32.3548C138.505 31.7009 137.285 31.3668 135.532 31.7777C134.284 32.0707 132.498 32.3858 130.865 32.6278C130.865 32.6278 130.963 32.2345 131.044 31.5411C131.469 27.905 127.518 28.2 126.257 29.3614C125.504 30.0548 124.992 30.8726 124.798 32.3429C124.489 34.6763 126.393 35.7769 126.393 35.7769C125.768 38.635 124.238 42.3688 122.657 45.0682C121.811 46.5145 121.164 47.5862 120.328 48.7255C120.325 48.3012 120.322 47.8771 120.321 47.4548C120.302 41.4459 120.382 36.7166 120.417 35.012C120.451 33.3425 120.518 32.0944 120.515 31.8034C120.505 31.1508 120.124 30.9044 119.332 30.5924C118.631 30.3164 117.802 30.1254 116.942 30.0588C115.857 29.9741 115.204 30.5496 115.221 31.23C115.224 31.3585 115.224 32.1474 115.224 32.1474C114.332 30.7453 112.897 29.7695 111.942 29.4867C109.37 28.7233 106.687 29.4 104.663 32.232C103.055 34.4825 102.001 37.6404 101.703 40.6655C101.425 43.4848 101.476 45.8808 101.855 47.8991C101.446 49.9201 100.271 52.0336 98.9412 52.0336C97.2417 52.0336 96.2747 50.5304 96.2747 43.6606C96.2747 39.6529 96.395 37.9103 96.4542 35.012C96.4885 33.3425 96.5548 32.0601 96.551 31.7694C96.5386 30.8772 94.9957 30.4275 94.2778 30.261C93.5267 30.0873 92.8782 30.0234 92.3802 30.0601C91.7232 30.1091 91.2613 30.6974 91.2613 31.1362V32.1474C90.3691 30.7453 88.934 29.7695 87.9793 29.4867C85.4076 28.7233 82.7391 29.4109 80.7001 32.232C79.3704 34.0715 78.294 36.1109 77.74 40.6254C77.5799 41.93 77.5092 43.1516 77.5183 44.2935C76.9881 47.5362 74.6462 51.2735 72.7306 51.2735C71.6096 51.2735 70.542 49.0993 70.542 44.4655C70.542 38.293 70.9241 29.5047 70.9887 28.6577C70.9887 28.6577 73.409 28.6166 73.8778 28.6111C75.085 28.5979 76.1785 28.6264 77.7865 28.5442C78.5931 28.5031 79.3701 25.6085 78.5377 25.2503C78.1604 25.0882 75.4939 24.9461 74.4369 24.9236C73.5481 24.9035 71.0736 24.7204 71.0736 24.7204C71.0736 24.7204 71.2956 18.8871 71.3473 18.2709C71.3911 17.7573 70.7266 17.4929 70.3456 17.3324C69.419 16.9406 68.59 16.7529 67.6074 16.5504C66.2499 16.2703 65.634 16.5442 65.5137 17.69C65.3325 19.4289 65.2387 24.5222 65.2387 24.5222C64.2425 24.5222 60.8394 24.3275 59.8429 24.3275C58.917 24.3275 57.9177 28.3093 59.1978 28.3583C60.6705 28.4154 63.2371 28.4647 64.9385 28.516C64.9385 28.516 64.8628 37.4491 64.8628 40.207C64.8628 40.5004 64.8653 40.7829 64.8658 41.0571C63.9294 45.938 60.6311 48.5745 60.6311 48.5745C61.3394 45.3455 59.8925 42.9207 57.2862 40.8681C56.326 40.1117 54.4304 38.6798 52.3095 37.1106C52.3095 37.1106 53.5378 35.8999 54.6272 33.4642C55.3991 31.7389 55.4324 29.7645 53.5378 29.3291C50.4074 28.6092 47.8263 30.9082 47.0564 33.3626C46.4599 35.2639 46.7781 36.6748 47.9466 38.1405C48.0319 38.2475 48.1244 38.357 48.2199 38.4671C47.5132 39.8291 46.5425 41.6629 45.7203 43.0849C43.4382 47.0331 41.7143 50.156 40.4115 50.156C39.37 50.156 39.384 46.9854 39.384 44.0169C39.384 41.4577 39.573 37.6102 39.7239 33.6267C39.7738 32.3093 39.1151 31.5588 38.0108 30.879C37.3399 30.466 35.9079 29.654 35.0786 29.654C33.8372 29.654 30.2558 29.8229 26.8718 39.6115C26.4454 40.8453 25.6076 43.0934 25.6076 43.0934L25.6797 31.3222C25.6797 31.0462 25.5327 30.7794 25.1961 30.5969C24.6259 30.2872 23.1029 29.654 21.7486 29.654C21.1033 29.654 20.7813 29.9541 20.7813 30.5523L20.6632 48.9685C20.6632 50.3677 20.6997 52.0001 20.838 52.7141C20.9759 53.429 21.1992 54.0105 21.4757 54.3565C21.7519 54.7018 22.0713 54.9652 22.598 55.074C23.0882 55.1749 25.7725 55.5196 25.912 54.4938C26.0792 53.2644 26.0856 51.9348 27.4951 46.9757C29.6893 39.255 32.5503 35.4879 33.8952 34.1501C34.1304 33.9163 34.3989 33.9023 34.386 34.285C34.3286 35.9777 34.1267 40.2074 33.9907 43.8007C33.6264 53.417 35.3758 55.1994 37.8757 55.1994C39.7883 55.1994 42.4843 53.299 45.3744 48.4885C47.1762 45.4907 48.9257 42.5513 50.1826 40.4327C51.0585 41.2436 52.0415 42.1163 53.0238 43.0486C55.3065 45.2151 56.056 47.2738 55.5587 49.2268C55.1783 50.7198 53.746 52.2585 51.1968 50.763C50.4538 50.3267 50.1367 49.9896 49.3896 49.4977C48.9882 49.2334 48.3754 49.1544 48.0079 49.4313C47.0535 50.1509 46.5077 51.0662 46.196 52.1994C45.8928 53.3021 46.9971 53.885 48.1419 54.3948C49.1275 54.8336 51.2461 55.2312 52.5972 55.2765C57.8615 55.4526 62.0785 52.7347 65.0142 45.7241C65.5397 51.7787 67.7761 55.2048 71.6618 55.2048C74.2596 55.2048 76.8642 51.8469 78.0032 48.5436C78.3302 49.8901 78.8142 51.0611 79.4393 52.0513C82.4334 56.7952 88.2418 55.7741 91.1595 51.7458C92.0616 50.501 92.1989 50.0537 92.1989 50.0537C92.6244 53.8575 95.6875 55.1865 97.4414 55.1865C99.4057 55.1865 101.434 54.2579 102.855 51.0578C103.022 51.4051 103.204 51.7367 103.402 52.0511C106.396 56.7951 112.205 55.774 115.122 51.7457C115.26 51.5567 115.379 51.3853 115.484 51.2314L115.569 53.7299C115.569 53.7299 113.905 55.2568 112.883 56.1935C108.386 60.3191 104.967 63.4492 104.715 67.0942C104.393 71.7419 108.162 73.4692 111.014 73.6956C114.042 73.9359 116.636 72.263 118.23 69.9218C119.632 67.861 120.549 63.4257 120.482 59.0452C120.455 57.291 120.411 55.0606 120.376 52.6698C121.957 50.8344 123.738 48.5146 125.377 45.7992C127.164 42.84 129.079 38.8661 130.06 35.7734C130.06 35.7734 131.723 35.7876 133.499 35.6714C134.067 35.6343 134.23 35.7502 134.125 36.1666C133.998 36.6696 131.882 44.8332 133.813 50.2715C135.136 53.9944 138.116 55.1921 139.883 55.1921C141.952 55.1921 143.931 53.63 144.991 51.3102C145.119 51.5689 145.253 51.8191 145.398 52.0501C148.392 56.794 154.181 55.7669 157.119 51.7447C157.782 50.8372 158.158 50.0526 158.158 50.0526C158.788 53.9893 161.85 55.2054 163.603 55.2054C165.43 55.2054 167.163 54.4566 168.57 51.1287C168.629 52.594 168.721 53.7921 168.867 54.1698C168.956 54.4008 169.475 54.6908 169.853 54.8309C171.524 55.4505 173.228 55.1575 173.859 55.0301C174.295 54.9417 174.636 54.5913 174.683 53.6864C174.805 51.3106 174.73 47.3188 175.45 44.3523C176.659 39.3735 177.787 37.4422 178.322 36.4861C178.621 35.9504 178.959 35.8621 178.971 36.429C178.997 37.5761 179.054 40.9448 179.522 45.4709C179.866 48.7996 180.325 50.7671 180.679 51.3898C181.686 53.1705 182.931 53.2548 183.945 53.2548C184.589 53.2548 185.938 53.0766 185.817 51.9434C185.758 51.3911 185.861 47.9775 187.053 43.0725C187.832 39.8694 189.129 36.9752 189.597 35.9171C189.77 35.5269 189.85 35.8345 189.848 35.8944C189.749 38.1003 189.528 45.3156 190.426 49.2618C191.645 54.6076 195.169 55.2058 196.397 55.2058C199.018 55.2058 201.162 53.2116 201.885 47.9644C202.059 46.7016 201.801 45.7266 201.029 45.7266" fill="#868686"/>
</svg>
