<svg width="362" height="78" viewBox="0 0 362 78" fill="none" xmlns="http://www.w3.org/2000/svg">
<g clip-path="url(#clip0_3_531)">
<path d="M361.334 34.8975V28.5424H353.442V18.6636L353.177 18.7448L345.765 21.013L345.619 21.0575V28.5424H333.921V24.373C333.921 22.4315 334.355 20.9453 335.211 19.9551C336.06 18.9756 337.276 18.478 338.825 18.478C339.94 18.478 341.094 18.7406 342.255 19.2579L342.546 19.3877V12.696L342.409 12.6466C341.326 12.2563 339.852 12.0608 338.026 12.0608C335.724 12.0608 333.633 12.5612 331.809 13.5541C330.011 14.5209 328.53 15.9851 327.543 17.7716C326.541 19.574 326.033 21.6552 326.033 23.9587V28.5431H320.538V34.8982H326.033V61.6687H333.921V34.8975H345.619V51.9099C345.619 58.9164 348.924 62.4676 355.442 62.4676C356.568 62.461 357.691 62.3361 358.791 62.095C359.963 61.843 360.76 61.5911 361.23 61.3222L361.334 61.2608V54.8471L361.013 55.0595C360.585 55.3454 360.052 55.5783 359.427 55.7512C358.799 55.9276 358.275 56.0165 357.869 56.0165C356.342 56.0165 355.212 55.6051 354.511 54.7928C353.802 53.9741 353.442 52.5408 353.442 50.5365V34.8975H361.334ZM302.922 56.0172C300.059 56.0172 297.802 55.0673 296.21 53.1978C294.611 51.3178 293.799 48.6388 293.799 45.2337C293.799 41.7212 294.611 38.9724 296.212 37.0592C297.803 35.1594 300.039 34.1946 302.858 34.1946C305.592 34.1946 307.77 35.1156 309.329 36.9343C310.897 38.7614 311.692 41.4884 311.692 45.0417C311.692 48.6388 310.944 51.4025 309.469 53.2508C308.005 55.0857 305.802 56.0172 302.922 56.0172ZM303.273 27.7443C297.811 27.7443 293.472 29.3449 290.38 32.5016C287.288 35.659 285.721 40.0275 285.721 45.4884C285.721 50.6748 287.251 54.8464 290.268 57.886C293.286 60.9263 297.393 62.4662 302.474 62.4662C307.769 62.4662 312.021 60.8437 315.113 57.6432C318.205 54.4463 319.771 50.1187 319.771 44.7848C319.771 39.518 318.301 35.3153 315.401 32.2962C312.499 29.2757 308.418 27.7443 303.273 27.7443ZM273.002 27.7443C269.286 27.7443 266.213 28.6949 263.865 30.5686C261.503 32.4536 260.305 34.9265 260.305 37.9181C260.305 39.4728 260.563 40.8539 261.073 42.0254C261.585 43.2012 262.377 44.2358 263.43 45.1045C264.475 45.9662 266.087 46.8688 268.225 47.7863C270.021 48.5259 271.361 49.1519 272.212 49.6445C273.044 50.1279 273.635 50.6134 273.968 51.0863C274.292 51.5485 274.456 52.1823 274.456 52.9635C274.456 55.1894 272.79 56.272 269.361 56.272C268.089 56.272 266.638 56.0066 265.048 55.483C263.47 54.967 261.981 54.2118 260.633 53.2437L260.305 53.0094V60.6031L260.425 60.6595C261.542 61.1747 262.949 61.6087 264.607 61.951C266.263 62.2926 267.766 62.4669 269.073 62.4669C273.105 62.4669 276.352 61.512 278.72 59.627C281.106 57.7286 282.314 55.1986 282.314 52.1025C282.314 49.8703 281.663 47.955 280.38 46.4108C279.108 44.8794 276.897 43.4729 273.815 42.2301C271.359 41.2442 269.785 40.4262 269.137 39.7981C268.511 39.1912 268.193 38.333 268.193 37.2469C268.193 36.2829 268.585 35.5115 269.391 34.8862C270.202 34.2582 271.331 33.9385 272.747 33.9385C274.062 33.9385 275.406 34.1459 276.744 34.5524C278.08 34.9596 279.253 35.5052 280.233 36.1714L280.555 36.3916V29.1875L280.432 29.1346C279.528 28.7464 278.336 28.4147 276.889 28.1465C275.447 27.8798 274.139 27.7443 273.002 27.7443ZM239.741 56.0172C236.878 56.0172 234.621 55.0673 233.03 53.1978C231.429 51.3178 230.62 48.6388 230.62 45.2337C230.62 41.7212 231.43 38.9724 233.032 37.0592C234.622 35.1594 236.857 34.1946 239.677 34.1946C242.412 34.1946 244.589 35.1156 246.149 36.9343C247.716 38.7614 248.512 41.4884 248.512 45.0417C248.512 48.6388 247.764 51.4025 246.289 53.2508C244.823 55.0857 242.622 56.0172 239.741 56.0172ZM240.093 27.7443C234.629 27.7443 230.29 29.3449 227.199 32.5016C224.108 35.659 222.539 40.0275 222.539 45.4884C222.539 50.677 224.071 54.8464 227.088 57.886C230.105 60.9263 234.212 62.4662 239.294 62.4662C244.587 62.4662 248.841 60.8437 251.934 57.6432C255.024 54.4463 256.592 50.1187 256.592 44.7848C256.592 39.518 255.121 35.3153 252.22 32.2962C249.318 29.2757 245.237 27.7443 240.093 27.7443ZM210.565 34.2793V28.5424H202.773V61.6673H210.565V44.722C210.565 41.8405 211.218 39.4735 212.507 37.6859C213.78 35.9194 215.476 35.0239 217.546 35.0239C218.248 35.0239 219.036 35.1396 219.889 35.369C220.734 35.5962 221.346 35.8432 221.707 36.1029L222.034 36.3408V28.486L221.907 28.4316C221.182 28.1232 220.155 27.968 218.857 27.968C216.898 27.968 215.146 28.5968 213.646 29.8353C212.328 30.9243 211.375 32.4176 210.648 34.2793H210.565ZM188.82 27.7443C185.245 27.7443 182.056 28.5114 179.344 30.0224C176.627 31.5361 174.524 33.6992 173.094 36.448C171.671 39.1912 170.948 42.3952 170.948 45.9683C170.948 49.0975 171.649 51.9699 173.034 54.5006C174.42 57.0363 176.382 59.0201 178.865 60.3963C181.344 61.7703 184.21 62.4669 187.383 62.4669C191.086 62.4669 194.247 61.7266 196.783 60.2671L196.885 60.2079V53.0694L196.558 53.3086C195.392 54.1539 194.107 54.8226 192.746 55.2931C191.368 55.7737 190.113 56.0165 189.012 56.0165C185.954 56.0165 183.5 55.0603 181.718 53.1745C179.933 51.2853 179.028 48.6339 179.028 45.2965C179.028 41.9386 179.972 39.2187 181.832 37.2109C183.687 35.2102 186.146 34.1953 189.141 34.1953C191.702 34.1953 194.197 35.0627 196.558 36.7755L196.885 37.0126V29.4909L196.779 29.4317C195.89 28.9341 194.679 28.5234 193.175 28.2122C191.677 27.9016 190.212 27.7443 188.82 27.7443ZM165.582 28.5424H157.789V61.6673H165.582V28.5424ZM161.765 14.4314C160.483 14.4314 159.364 14.8682 158.446 15.7327C157.523 16.6008 157.054 17.6933 157.054 18.9819C157.054 20.2508 157.517 21.3228 158.43 22.1676C159.338 23.0095 160.46 23.4365 161.765 23.4365C163.07 23.4365 164.196 23.0095 165.115 22.169C166.039 21.3228 166.509 20.2508 166.509 18.9819C166.509 17.7384 166.052 16.6565 165.153 15.768C164.254 14.8809 163.114 14.4314 161.765 14.4314ZM142.324 26.0992V61.6666H150.276V15.4455H139.27L125.281 49.7772L111.705 15.4455H100.251V61.6673H107.724V26.0957H107.981L122.316 61.6673H127.955L142.067 26.0985L142.324 26.0992Z" fill="#868686"/>
<path d="M36.6549 36.6549H0V0H36.6549V36.6549Z" fill="#868686"/>
<path d="M77.1272 36.6549H40.4723V0H77.1272V36.6549Z" fill="#868686"/>
<path d="M36.6543 77.1407H9.15527e-05V40.4857H36.6543V77.1407Z" fill="#868686"/>
<path d="M77.1272 77.1407H40.4723V40.4857H77.1272V77.1407Z" fill="#868686"/>
</g>
<defs>
<clipPath id="clip0_3_531">
<rect width="361.334" height="77.6303" fill="white"/>
</clipPath>
</defs>
</svg>
