<svg width="227" height="78" viewBox="0 0 227 78" fill="none" xmlns="http://www.w3.org/2000/svg">
<g clip-path="url(#clip0_3_791)">
<path d="M34.0808 4.97971C15.3234 4.97971 0.116882 20.1858 0.116882 38.9432C0.116882 57.7013 15.3234 72.9062 34.0808 72.9062C52.8401 72.9062 68.0451 57.7013 68.0451 38.9432C68.0451 20.1871 52.8401 4.98133 34.0804 4.98133L34.0808 4.97971ZM49.6564 53.9648C49.048 54.9625 47.7421 55.2788 46.7444 54.6664C38.77 49.7955 28.7313 48.6923 16.9088 51.3934C15.7696 51.653 14.634 50.9392 14.3744 49.7995C14.1136 48.6599 14.8246 47.5243 15.9667 47.2647C28.9044 44.3089 40.0021 45.5816 48.9547 51.0528C49.9524 51.6652 50.2688 52.9671 49.6564 53.9648ZM53.8135 44.7169C53.047 45.9628 51.4166 46.3562 50.1715 45.5897C41.042 39.9782 27.1256 38.3531 16.3272 41.6309C14.9268 42.0539 13.4477 41.2647 13.0226 39.8667C12.6008 38.4662 13.3905 36.9899 14.7885 36.5641C27.1232 32.8215 42.4575 34.6344 52.9415 41.0769C54.1866 41.8434 54.58 43.4738 53.8135 44.7173V44.7169ZM54.1704 35.087C43.224 28.5852 25.1638 27.9874 14.7126 31.1594C13.0344 31.6684 11.2596 30.721 10.751 29.0427C10.2424 27.3637 11.189 25.5901 12.8685 25.0799C24.8657 21.4378 44.8098 22.1415 57.4126 29.6231C58.9253 30.519 59.4201 32.4686 58.5238 33.9761C57.6316 35.4857 55.6767 35.9833 54.172 35.087H54.1704ZM92.5214 36.3329C86.6568 34.9345 85.6145 33.953 85.6145 31.8907C85.6145 29.9423 87.4477 28.6311 90.1772 28.6311C92.8215 28.6311 95.4415 29.6268 98.1913 31.6765C98.2724 31.7386 98.3778 31.7633 98.4792 31.7471C98.5847 31.7317 98.6739 31.6753 98.7347 31.5905L101.598 27.5543C101.716 27.388 101.683 27.1589 101.525 27.0319C98.2521 24.4066 94.5695 23.1303 90.2623 23.1303C83.9313 23.1303 79.5065 26.9301 79.5065 32.3668C79.5065 38.1969 83.323 40.2613 89.9176 41.8548C95.5267 43.1473 96.4757 44.2302 96.4757 46.1656C96.4757 48.3111 94.5614 49.6454 91.479 49.6454C88.056 49.6454 85.2616 48.4895 82.1387 45.7884C82.0617 45.7195 81.9562 45.6911 81.8589 45.6951C81.7534 45.7033 81.6601 45.7519 81.5952 45.829L78.3831 49.6495C78.2493 49.8117 78.2655 50.0469 78.4196 50.1848C82.0535 53.4294 86.5229 55.1409 91.3493 55.1409C98.171 55.1409 102.58 51.4137 102.58 45.6424C102.592 40.7727 99.6757 38.0756 92.5335 36.3382L92.5214 36.3329ZM118.016 30.5494C115.059 30.5494 112.634 31.7142 110.63 34.101V31.4145C110.63 31.2024 110.46 31.0296 110.249 31.0296H104.997C104.786 31.0296 104.616 31.2024 104.616 31.4145V61.2651C104.616 61.476 104.786 61.6504 104.997 61.6504H110.249C110.46 61.6504 110.63 61.476 110.63 61.2651V51.8436C112.634 54.0864 115.059 55.1855 118.016 55.1855C123.511 55.1855 129.076 50.9554 129.076 42.8687C129.084 34.7804 123.519 30.549 118.02 30.549L118.016 30.5494ZM122.968 42.8687C122.968 46.9849 120.433 49.8604 116.799 49.8604C113.21 49.8604 110.5 46.8551 110.5 42.8687C110.5 38.8819 113.21 35.8774 116.799 35.8774C120.372 35.877 122.968 38.8166 122.968 42.8683V42.8687ZM143.332 30.5494C136.254 30.5494 130.71 35.9987 130.71 42.9567C130.71 49.8401 136.218 55.2302 143.246 55.2302C150.348 55.2302 155.908 49.7995 155.908 42.8687C155.908 35.9614 150.384 30.5502 143.332 30.5502V30.5494ZM143.332 49.9009C139.568 49.9009 136.729 46.8754 136.729 42.8667C136.729 38.8397 139.47 35.9176 143.246 35.9176C147.034 35.9176 149.89 38.942 149.89 42.9547C149.89 46.9808 147.132 49.9009 143.332 49.9009ZM171.02 31.0296H165.241V25.1221C165.241 24.9104 165.07 24.7376 164.859 24.7376H159.607C159.396 24.7376 159.222 24.9104 159.222 25.1221V31.0296H156.699C156.488 31.0296 156.318 31.2024 156.318 31.4145V35.9273C156.318 36.139 156.488 36.3122 156.699 36.3122H159.222V47.9907C159.222 52.7075 161.57 55.1004 166.206 55.1004C168.088 55.1004 169.649 54.711 171.121 53.8755C171.243 53.8106 171.316 53.6809 171.316 53.543V49.2439C171.316 49.1141 171.247 48.9884 171.134 48.9194C171.02 48.8464 170.878 48.8424 170.76 48.9032C169.751 49.4102 168.773 49.6454 167.678 49.6454C165.995 49.6454 165.241 48.8789 165.241 47.1674V36.3142H171.02C171.231 36.3142 171.401 36.1415 171.401 35.9294V31.417C171.409 31.2048 171.239 31.0321 171.024 31.0321L171.02 31.0296ZM191.153 31.0528V30.3272C191.153 28.1927 191.972 27.2408 193.805 27.2408C194.9 27.2408 195.78 27.4582 196.766 27.7867C196.887 27.8248 197.013 27.8057 197.11 27.7331C197.212 27.6605 197.269 27.5441 197.269 27.4209V22.9961C197.269 22.8269 197.163 22.6773 196.997 22.6274C195.959 22.3179 194.628 22.0004 192.633 22.0004C187.786 22.0004 185.219 24.7315 185.219 29.8957V31.0069H182.696C182.486 31.0069 182.311 31.1797 182.311 31.3914V35.9273C182.311 36.139 182.486 36.3122 182.696 36.3122H185.219V54.3217C185.219 54.5366 185.393 54.707 185.604 54.707H190.853C191.067 54.707 191.238 54.5366 191.238 54.3217V36.3134H196.141L203.652 54.3217C202.801 56.2116 201.961 56.5888 200.817 56.5888C199.893 56.5888 198.915 56.313 197.922 55.7655C197.828 55.7168 197.715 55.7087 197.617 55.7371C197.516 55.7736 197.431 55.8466 197.39 55.944L195.61 59.8496C195.525 60.0362 195.598 60.2511 195.776 60.3485C197.634 61.3543 199.309 61.7842 201.381 61.7842C205.258 61.7842 207.404 59.9754 209.29 55.1166L218.399 31.5784C218.448 31.4599 218.431 31.3261 218.358 31.2211C218.289 31.1168 218.172 31.054 218.046 31.054H212.579C212.413 31.054 212.267 31.1582 212.214 31.3119L206.613 47.3053L200.481 31.3014C200.424 31.1525 200.282 31.054 200.124 31.054H191.153V31.0528ZM179.48 31.0296H174.228C174.017 31.0296 173.843 31.2024 173.843 31.4145V54.3217C173.843 54.5366 174.017 54.707 174.228 54.707H179.48C179.691 54.707 179.866 54.5366 179.866 54.3217V31.4161C179.866 31.204 179.695 31.0313 179.48 31.0313V31.0296ZM176.885 20.5987C174.804 20.5987 173.117 22.2826 173.117 24.3628C173.117 26.4442 174.804 28.1302 176.885 28.1302C178.965 28.1302 180.648 26.4442 180.648 24.3628C180.648 22.2831 178.961 20.5987 176.885 20.5987ZM222.885 38.3952C220.808 38.3952 219.19 36.7263 219.19 34.6997C219.19 32.673 220.828 30.985 222.905 30.985C224.981 30.985 226.6 32.6535 226.6 34.6786C226.6 36.7052 224.961 38.3952 222.885 38.3952ZM222.905 31.3525C221.011 31.3525 219.579 32.8571 219.579 34.6997C219.579 36.5414 221.003 38.0258 222.885 38.0258C224.779 38.0258 226.21 36.5223 226.21 34.6786C226.21 32.8369 224.787 31.3525 222.905 31.3525ZM223.724 35.0586L224.771 36.5219H223.886L222.945 35.1795H222.138V36.5219H221.4V32.643H223.128C224.032 32.643 224.625 33.1041 224.625 33.8804C224.629 34.5163 224.26 34.9049 223.728 35.0586H223.724ZM223.1 33.3085H222.138V34.5354H223.1C223.578 34.5354 223.866 34.3006 223.866 33.9214C223.866 33.5223 223.578 33.3085 223.1 33.3085Z" fill="#868686"/>
</g>
<defs>
<clipPath id="clip0_3_791">
<rect width="226.422" height="77.6303" fill="white"/>
</clipPath>
</defs>
</svg>
